<svg width="264" height="194" viewBox="0 0 264 194" fill="none" xmlns="http://www.w3.org/2000/svg">
<path d="M184.835 79.3636H158.428C156.094 79.3636 153.855 78.4346 152.204 76.7809C150.553 75.1271 149.626 72.8842 149.626 70.5455C149.626 68.2067 150.553 65.9638 152.204 64.3101C153.855 62.6563 156.094 61.7273 158.428 61.7273H184.835C187.17 61.7273 189.409 62.6563 191.06 64.3101C192.71 65.9638 193.638 68.2067 193.638 70.5455C193.638 72.8842 192.71 75.1271 191.06 76.7809C189.409 78.4346 187.17 79.3636 184.835 79.3636ZM105.614 61.7273H96.8116V52.9091C96.8116 50.5704 95.8842 48.3274 94.2334 46.6737C92.5826 45.02 90.3437 44.0909 88.0092 44.0909C85.6746 44.0909 83.4357 45.02 81.785 46.6737C80.1342 48.3274 79.2068 50.5704 79.2068 52.9091V61.7273H70.4044C68.0699 61.7273 65.831 62.6563 64.1802 64.3101C62.5294 65.9638 61.602 68.2067 61.602 70.5455C61.602 72.8842 62.5294 75.1271 64.1802 76.7809C65.831 78.4346 68.0699 79.3636 70.4044 79.3636H79.2068V88.1818C79.2068 90.5205 80.1342 92.7635 81.785 94.4172C83.4357 96.0709 85.6746 97 88.0092 97C90.3437 97 92.5826 96.0709 94.2334 94.4172C95.8842 92.7635 96.8116 90.5205 96.8116 88.1818V79.3636H105.614C107.948 79.3636 110.187 78.4346 111.838 76.7809C113.489 75.1271 114.416 72.8842 114.416 70.5455C114.416 68.2067 113.489 65.9638 111.838 64.3101C110.187 62.6563 107.948 61.7273 105.614 61.7273ZM256.883 177.08C253.565 181.826 249.251 185.786 244.242 188.683C239.234 191.58 233.653 193.343 227.892 193.849C222.13 194.354 216.328 193.589 210.893 191.608C205.459 189.627 200.523 186.478 196.433 182.382C196.301 182.25 196.168 182.117 196.047 181.974L152.355 132.273H111.644L67.9948 181.974L67.6097 182.382C60.1739 189.815 50.1005 193.993 39.5961 194C33.8133 193.998 28.1012 192.727 22.8609 190.278C17.6206 187.828 12.9793 184.259 9.26292 179.82C5.54658 175.382 2.84537 170.182 1.34904 164.586C-0.147281 158.99 -0.40243 153.134 0.601519 147.429C0.596219 147.378 0.596219 147.326 0.601519 147.275L18.6134 54.5845C21.2941 39.2968 29.2671 25.4445 41.1316 15.4617C52.9961 5.47896 67.9929 0.00440298 83.487 0H180.434C195.881 0.0246877 210.832 5.46794 222.691 15.3847C234.55 25.3014 242.567 39.0654 245.352 54.2869C245.352 54.3531 245.352 54.4192 245.352 54.4853L263.364 147.264C263.369 147.315 263.369 147.367 263.364 147.418C264.296 152.546 264.203 157.808 263.091 162.9C261.978 167.991 259.868 172.811 256.883 177.08ZM180.434 114.636C193.274 114.636 205.588 109.527 214.667 100.431C223.747 91.3355 228.847 78.9994 228.847 66.1364C228.847 53.2734 223.747 40.9372 214.667 31.8417C205.588 22.7462 193.274 17.6364 180.434 17.6364H83.487C72.1203 17.6466 61.1214 21.6722 52.4252 29.0049C43.7291 36.3376 37.8928 46.5078 35.9431 57.726V57.8693L17.9202 150.559C17.1236 155.155 17.8023 159.885 19.8587 164.069C21.9151 168.254 25.2433 171.677 29.3646 173.846C33.4858 176.016 38.1878 176.821 42.7943 176.144C47.4007 175.467 51.6743 173.344 55.0002 170.081L101.125 117.624C101.951 116.685 102.966 115.933 104.105 115.418C105.243 114.903 106.478 114.637 107.727 114.636H180.434ZM246.122 150.559L236.505 100.957C230.591 110.525 222.337 118.422 212.525 123.902C202.713 129.382 191.668 132.263 180.434 132.273H175.813L209.042 170.092C211.547 172.533 214.595 174.344 217.934 175.377C221.274 176.41 224.81 176.635 228.253 176.033C233.989 175.019 239.089 171.768 242.437 166.993C245.784 162.218 247.105 156.309 246.111 150.559H246.122Z" fill="white"/>
</svg>
